<mxfile host="Electron" agent="Mozilla/5.0 (Windows NT 10.0; Win64; x64) AppleWebKit/537.36 (KHTML, like Gecko) draw.io/24.7.17 Chrome/128.0.6613.36 Electron/32.0.1 Safari/537.36" version="24.7.17" pages="5">
  <diagram name="Inscription MOBILE" id="Eawkx0G0B38hxl2cfDGM">
    <mxGraphModel dx="1434" dy="836" grid="1" gridSize="10" guides="1" tooltips="1" connect="1" arrows="1" fold="1" page="1" pageScale="1" pageWidth="1100" pageHeight="850" background="#ffffff" math="0" shadow="0">
      <root>
        <mxCell id="ZZamSoKpd6Cl0ROeQAEA-0" />
        <mxCell id="ZZamSoKpd6Cl0ROeQAEA-1" parent="ZZamSoKpd6Cl0ROeQAEA-0" />
        <mxCell id="ZZamSoKpd6Cl0ROeQAEA-2" value="" style="whiteSpace=wrap;html=1;rounded=0;shadow=0;labelBackgroundColor=none;strokeWidth=1;fillColor=none;fontFamily=Verdana;fontSize=12;align=center;comic=1;" parent="ZZamSoKpd6Cl0ROeQAEA-1" vertex="1">
          <mxGeometry x="280" y="110" width="500" height="50" as="geometry" />
        </mxCell>
        <mxCell id="ZZamSoKpd6Cl0ROeQAEA-3" value="" style="whiteSpace=wrap;html=1;rounded=0;shadow=0;labelBackgroundColor=none;strokeColor=#000000;strokeWidth=1;fillColor=none;fontFamily=Verdana;fontSize=12;fontColor=#000000;align=center;comic=1;" parent="ZZamSoKpd6Cl0ROeQAEA-1" vertex="1">
          <mxGeometry x="280" y="20" width="500" height="810" as="geometry" />
        </mxCell>
        <mxCell id="ZZamSoKpd6Cl0ROeQAEA-4" value="LOGO" style="whiteSpace=wrap;html=1;rounded=0;shadow=0;labelBackgroundColor=none;strokeWidth=1;fontFamily=Verdana;fontSize=28;align=center;comic=1;" parent="ZZamSoKpd6Cl0ROeQAEA-1" vertex="1">
          <mxGeometry x="300" y="40" width="190" height="50" as="geometry" />
        </mxCell>
        <mxCell id="ZZamSoKpd6Cl0ROeQAEA-6" value="nom du site" style="text;html=1;points=[];align=left;verticalAlign=top;spacingTop=-4;fontSize=14;fontFamily=Verdana" parent="ZZamSoKpd6Cl0ROeQAEA-1" vertex="1">
          <mxGeometry x="550" y="52.5" width="123" height="25" as="geometry" />
        </mxCell>
        <mxCell id="ZZamSoKpd6Cl0ROeQAEA-41" value="Formulaire inscription" style="rounded=0;whiteSpace=wrap;html=1;" parent="ZZamSoKpd6Cl0ROeQAEA-1" vertex="1">
          <mxGeometry x="650" y="45" width="120" height="40" as="geometry" />
        </mxCell>
        <mxCell id="I-i4nRFDc4vg6ogzLsqH-4" value="" style="group" parent="ZZamSoKpd6Cl0ROeQAEA-1" vertex="1" connectable="0">
          <mxGeometry x="320" y="370" width="420" height="360" as="geometry" />
        </mxCell>
        <mxCell id="Da28t7ltUD02QJyFH7JS-0" value="" style="rounded=0;whiteSpace=wrap;html=1;" parent="I-i4nRFDc4vg6ogzLsqH-4" vertex="1">
          <mxGeometry width="420" height="360" as="geometry" />
        </mxCell>
        <mxCell id="Da28t7ltUD02QJyFH7JS-2" value="inscription" style="text;html=1;align=center;verticalAlign=middle;whiteSpace=wrap;rounded=0;" parent="I-i4nRFDc4vg6ogzLsqH-4" vertex="1">
          <mxGeometry x="170" y="15" width="60" height="30" as="geometry" />
        </mxCell>
        <mxCell id="Da28t7ltUD02QJyFH7JS-3" value="Username" style="text;html=1;align=center;verticalAlign=middle;whiteSpace=wrap;rounded=0;" parent="I-i4nRFDc4vg6ogzLsqH-4" vertex="1">
          <mxGeometry x="58.5" y="45" width="60" height="30" as="geometry" />
        </mxCell>
        <mxCell id="Da28t7ltUD02QJyFH7JS-4" value="" style="rounded=0;whiteSpace=wrap;html=1;" parent="I-i4nRFDc4vg6ogzLsqH-4" vertex="1">
          <mxGeometry x="60" y="75" width="300" height="30" as="geometry" />
        </mxCell>
        <mxCell id="Da28t7ltUD02QJyFH7JS-5" value="Email" style="text;html=1;align=center;verticalAlign=middle;whiteSpace=wrap;rounded=0;" parent="I-i4nRFDc4vg6ogzLsqH-4" vertex="1">
          <mxGeometry x="50" y="105" width="60" height="30" as="geometry" />
        </mxCell>
        <mxCell id="Da28t7ltUD02QJyFH7JS-6" value="" style="rounded=0;whiteSpace=wrap;html=1;" parent="I-i4nRFDc4vg6ogzLsqH-4" vertex="1">
          <mxGeometry x="60" y="135" width="300" height="30" as="geometry" />
        </mxCell>
        <mxCell id="Da28t7ltUD02QJyFH7JS-7" value="Password" style="text;html=1;align=center;verticalAlign=middle;whiteSpace=wrap;rounded=0;" parent="I-i4nRFDc4vg6ogzLsqH-4" vertex="1">
          <mxGeometry x="58.5" y="165" width="60" height="30" as="geometry" />
        </mxCell>
        <mxCell id="Da28t7ltUD02QJyFH7JS-8" value="" style="rounded=0;whiteSpace=wrap;html=1;" parent="I-i4nRFDc4vg6ogzLsqH-4" vertex="1">
          <mxGeometry x="60" y="195" width="300" height="30" as="geometry" />
        </mxCell>
        <mxCell id="Da28t7ltUD02QJyFH7JS-10" value="inscription" style="text;html=1;align=center;verticalAlign=middle;whiteSpace=wrap;rounded=0;" parent="I-i4nRFDc4vg6ogzLsqH-4" vertex="1">
          <mxGeometry x="150" y="305" width="120" height="30" as="geometry" />
        </mxCell>
        <mxCell id="Da28t7ltUD02QJyFH7JS-11" value="Confirm password" style="text;html=1;align=center;verticalAlign=middle;whiteSpace=wrap;rounded=0;" parent="I-i4nRFDc4vg6ogzLsqH-4" vertex="1">
          <mxGeometry x="59.25" y="225" width="110.75" height="30" as="geometry" />
        </mxCell>
        <mxCell id="Da28t7ltUD02QJyFH7JS-12" value="" style="rounded=0;whiteSpace=wrap;html=1;" parent="I-i4nRFDc4vg6ogzLsqH-4" vertex="1">
          <mxGeometry x="60.75" y="255" width="300" height="30" as="geometry" />
        </mxCell>
        <mxCell id="I-i4nRFDc4vg6ogzLsqH-6" value="Home" style="text;html=1;align=center;verticalAlign=middle;whiteSpace=wrap;rounded=0;" parent="ZZamSoKpd6Cl0ROeQAEA-1" vertex="1">
          <mxGeometry x="310" y="120" width="60" height="30" as="geometry" />
        </mxCell>
        <mxCell id="I-i4nRFDc4vg6ogzLsqH-7" value="bibliothÃ¨que" style="text;html=1;align=center;verticalAlign=middle;whiteSpace=wrap;rounded=0;" parent="ZZamSoKpd6Cl0ROeQAEA-1" vertex="1">
          <mxGeometry x="390" y="120" width="60" height="30" as="geometry" />
        </mxCell>
        <mxCell id="I-i4nRFDc4vg6ogzLsqH-8" value="sheet" style="text;html=1;align=center;verticalAlign=middle;whiteSpace=wrap;rounded=0;" parent="ZZamSoKpd6Cl0ROeQAEA-1" vertex="1">
          <mxGeometry x="470" y="120" width="60" height="30" as="geometry" />
        </mxCell>
        <mxCell id="I-i4nRFDc4vg6ogzLsqH-9" value="profil" style="text;html=1;align=center;verticalAlign=middle;whiteSpace=wrap;rounded=0;" parent="ZZamSoKpd6Cl0ROeQAEA-1" vertex="1">
          <mxGeometry x="581.5" y="120" width="60" height="30" as="geometry" />
        </mxCell>
        <mxCell id="I-i4nRFDc4vg6ogzLsqH-10" value="logout" style="text;html=1;align=center;verticalAlign=middle;whiteSpace=wrap;rounded=0;" parent="ZZamSoKpd6Cl0ROeQAEA-1" vertex="1">
          <mxGeometry x="700" y="120" width="60" height="30" as="geometry" />
        </mxCell>
        <mxCell id="PohIfaYSvzoGI0clbBPG-12" value="" style="rounded=0;whiteSpace=wrap;html=1;" parent="ZZamSoKpd6Cl0ROeQAEA-1" vertex="1">
          <mxGeometry x="280" y="770" width="500" height="60" as="geometry" />
        </mxCell>
      </root>
    </mxGraphModel>
  </diagram>
  <diagram name="login mobile" id="5D8q6Iz3ztoRSRxKqelX">
    <mxGraphModel dx="1434" dy="836" grid="1" gridSize="10" guides="1" tooltips="1" connect="1" arrows="1" fold="1" page="1" pageScale="1" pageWidth="1100" pageHeight="850" background="#ffffff" math="0" shadow="0">
      <root>
        <mxCell id="XNdbK183GoSkpKdzouXx-0" />
        <mxCell id="XNdbK183GoSkpKdzouXx-1" parent="XNdbK183GoSkpKdzouXx-0" />
        <mxCell id="XNdbK183GoSkpKdzouXx-2" value="" style="whiteSpace=wrap;html=1;rounded=0;shadow=0;labelBackgroundColor=none;strokeWidth=1;fillColor=none;fontFamily=Verdana;fontSize=12;align=center;comic=1;" parent="XNdbK183GoSkpKdzouXx-1" vertex="1">
          <mxGeometry x="280" y="110" width="500" height="50" as="geometry" />
        </mxCell>
        <mxCell id="XNdbK183GoSkpKdzouXx-3" value="" style="whiteSpace=wrap;html=1;rounded=0;shadow=0;labelBackgroundColor=none;strokeColor=#000000;strokeWidth=1;fillColor=none;fontFamily=Verdana;fontSize=12;fontColor=#000000;align=center;comic=1;" parent="XNdbK183GoSkpKdzouXx-1" vertex="1">
          <mxGeometry x="280" y="20" width="500" height="810" as="geometry" />
        </mxCell>
        <mxCell id="XNdbK183GoSkpKdzouXx-4" value="LOGO" style="whiteSpace=wrap;html=1;rounded=0;shadow=0;labelBackgroundColor=none;strokeWidth=1;fontFamily=Verdana;fontSize=28;align=center;comic=1;" parent="XNdbK183GoSkpKdzouXx-1" vertex="1">
          <mxGeometry x="300" y="40" width="190" height="50" as="geometry" />
        </mxCell>
        <mxCell id="XNdbK183GoSkpKdzouXx-5" value="nom du site" style="text;html=1;points=[];align=left;verticalAlign=top;spacingTop=-4;fontSize=14;fontFamily=Verdana" parent="XNdbK183GoSkpKdzouXx-1" vertex="1">
          <mxGeometry x="550" y="52.5" width="123" height="25" as="geometry" />
        </mxCell>
        <mxCell id="XNdbK183GoSkpKdzouXx-6" value="Formulaire login" style="rounded=0;whiteSpace=wrap;html=1;" parent="XNdbK183GoSkpKdzouXx-1" vertex="1">
          <mxGeometry x="650" y="45" width="120" height="40" as="geometry" />
        </mxCell>
        <mxCell id="XNdbK183GoSkpKdzouXx-7" value="" style="group" parent="XNdbK183GoSkpKdzouXx-1" vertex="1" connectable="0">
          <mxGeometry x="320" y="320" width="420" height="360" as="geometry" />
        </mxCell>
        <mxCell id="XNdbK183GoSkpKdzouXx-8" value="" style="rounded=0;whiteSpace=wrap;html=1;" parent="XNdbK183GoSkpKdzouXx-7" vertex="1">
          <mxGeometry width="420" height="360" as="geometry" />
        </mxCell>
        <mxCell id="XNdbK183GoSkpKdzouXx-9" value="login" style="text;html=1;align=center;verticalAlign=middle;whiteSpace=wrap;rounded=0;" parent="XNdbK183GoSkpKdzouXx-7" vertex="1">
          <mxGeometry x="170" y="15" width="60" height="30" as="geometry" />
        </mxCell>
        <mxCell id="XNdbK183GoSkpKdzouXx-12" value="Email" style="text;html=1;align=center;verticalAlign=middle;whiteSpace=wrap;rounded=0;" parent="XNdbK183GoSkpKdzouXx-7" vertex="1">
          <mxGeometry x="45" y="45" width="60" height="30" as="geometry" />
        </mxCell>
        <mxCell id="XNdbK183GoSkpKdzouXx-13" value="" style="rounded=0;whiteSpace=wrap;html=1;" parent="XNdbK183GoSkpKdzouXx-7" vertex="1">
          <mxGeometry x="55" y="75" width="300" height="30" as="geometry" />
        </mxCell>
        <mxCell id="XNdbK183GoSkpKdzouXx-14" value="Password" style="text;html=1;align=center;verticalAlign=middle;whiteSpace=wrap;rounded=0;" parent="XNdbK183GoSkpKdzouXx-7" vertex="1">
          <mxGeometry x="53.5" y="105" width="60" height="30" as="geometry" />
        </mxCell>
        <mxCell id="XNdbK183GoSkpKdzouXx-15" value="" style="rounded=0;whiteSpace=wrap;html=1;" parent="XNdbK183GoSkpKdzouXx-7" vertex="1">
          <mxGeometry x="55" y="135" width="300" height="30" as="geometry" />
        </mxCell>
        <mxCell id="XNdbK183GoSkpKdzouXx-16" value="login" style="text;html=1;align=center;verticalAlign=middle;whiteSpace=wrap;rounded=0;" parent="XNdbK183GoSkpKdzouXx-7" vertex="1">
          <mxGeometry x="140" y="200" width="120" height="30" as="geometry" />
        </mxCell>
        <mxCell id="XNdbK183GoSkpKdzouXx-19" value="Home" style="text;html=1;align=center;verticalAlign=middle;whiteSpace=wrap;rounded=0;" parent="XNdbK183GoSkpKdzouXx-1" vertex="1">
          <mxGeometry x="310" y="120" width="60" height="30" as="geometry" />
        </mxCell>
        <mxCell id="XNdbK183GoSkpKdzouXx-20" value="bibliothÃ¨que" style="text;html=1;align=center;verticalAlign=middle;whiteSpace=wrap;rounded=0;" parent="XNdbK183GoSkpKdzouXx-1" vertex="1">
          <mxGeometry x="390" y="120" width="60" height="30" as="geometry" />
        </mxCell>
        <mxCell id="XNdbK183GoSkpKdzouXx-21" value="sheet" style="text;html=1;align=center;verticalAlign=middle;whiteSpace=wrap;rounded=0;" parent="XNdbK183GoSkpKdzouXx-1" vertex="1">
          <mxGeometry x="470" y="120" width="60" height="30" as="geometry" />
        </mxCell>
        <mxCell id="XNdbK183GoSkpKdzouXx-22" value="profil" style="text;html=1;align=center;verticalAlign=middle;whiteSpace=wrap;rounded=0;" parent="XNdbK183GoSkpKdzouXx-1" vertex="1">
          <mxGeometry x="581.5" y="120" width="60" height="30" as="geometry" />
        </mxCell>
        <mxCell id="XNdbK183GoSkpKdzouXx-23" value="logout" style="text;html=1;align=center;verticalAlign=middle;whiteSpace=wrap;rounded=0;" parent="XNdbK183GoSkpKdzouXx-1" vertex="1">
          <mxGeometry x="700" y="120" width="60" height="30" as="geometry" />
        </mxCell>
      </root>
    </mxGraphModel>
  </diagram>
  <diagram name="home mobile" id="_yh2jNiQsMhLmsWrUb9V">
    <mxGraphModel dx="1434" dy="836" grid="1" gridSize="10" guides="1" tooltips="1" connect="1" arrows="1" fold="1" page="1" pageScale="1" pageWidth="1100" pageHeight="850" background="#ffffff" math="0" shadow="0">
      <root>
        <mxCell id="WSUk9pYbIgMh2Awi9GUR-0" />
        <mxCell id="WSUk9pYbIgMh2Awi9GUR-1" parent="WSUk9pYbIgMh2Awi9GUR-0" />
        <mxCell id="WSUk9pYbIgMh2Awi9GUR-2" value="" style="whiteSpace=wrap;html=1;rounded=0;shadow=0;labelBackgroundColor=none;strokeWidth=1;fillColor=none;fontFamily=Verdana;fontSize=12;align=center;comic=1;" vertex="1" parent="WSUk9pYbIgMh2Awi9GUR-1">
          <mxGeometry x="280" y="110" width="500" height="50" as="geometry" />
        </mxCell>
        <mxCell id="WSUk9pYbIgMh2Awi9GUR-3" value="" style="whiteSpace=wrap;html=1;rounded=0;shadow=0;labelBackgroundColor=none;strokeColor=#000000;strokeWidth=1;fillColor=none;fontFamily=Verdana;fontSize=12;fontColor=#000000;align=center;comic=1;" vertex="1" parent="WSUk9pYbIgMh2Awi9GUR-1">
          <mxGeometry x="280" y="20" width="500" height="810" as="geometry" />
        </mxCell>
        <mxCell id="WSUk9pYbIgMh2Awi9GUR-4" value="LOGO" style="whiteSpace=wrap;html=1;rounded=0;shadow=0;labelBackgroundColor=none;strokeWidth=1;fontFamily=Verdana;fontSize=28;align=center;comic=1;" vertex="1" parent="WSUk9pYbIgMh2Awi9GUR-1">
          <mxGeometry x="300" y="40" width="190" height="50" as="geometry" />
        </mxCell>
        <mxCell id="WSUk9pYbIgMh2Awi9GUR-5" value="nom du site" style="text;html=1;points=[];align=left;verticalAlign=top;spacingTop=-4;fontSize=14;fontFamily=Verdana" vertex="1" parent="WSUk9pYbIgMh2Awi9GUR-1">
          <mxGeometry x="550" y="52.5" width="123" height="25" as="geometry" />
        </mxCell>
        <mxCell id="WSUk9pYbIgMh2Awi9GUR-6" value="home" style="rounded=0;whiteSpace=wrap;html=1;" vertex="1" parent="WSUk9pYbIgMh2Awi9GUR-1">
          <mxGeometry x="650" y="37.5" width="120" height="40" as="geometry" />
        </mxCell>
        <mxCell id="WSUk9pYbIgMh2Awi9GUR-15" value="Home" style="text;html=1;align=center;verticalAlign=middle;whiteSpace=wrap;rounded=0;" vertex="1" parent="WSUk9pYbIgMh2Awi9GUR-1">
          <mxGeometry x="310" y="120" width="60" height="30" as="geometry" />
        </mxCell>
        <mxCell id="WSUk9pYbIgMh2Awi9GUR-16" value="bibliothÃ¨que" style="text;html=1;align=center;verticalAlign=middle;whiteSpace=wrap;rounded=0;" vertex="1" parent="WSUk9pYbIgMh2Awi9GUR-1">
          <mxGeometry x="390" y="120" width="60" height="30" as="geometry" />
        </mxCell>
        <mxCell id="WSUk9pYbIgMh2Awi9GUR-17" value="sheet" style="text;html=1;align=center;verticalAlign=middle;whiteSpace=wrap;rounded=0;" vertex="1" parent="WSUk9pYbIgMh2Awi9GUR-1">
          <mxGeometry x="470" y="120" width="60" height="30" as="geometry" />
        </mxCell>
        <mxCell id="WSUk9pYbIgMh2Awi9GUR-18" value="profil" style="text;html=1;align=center;verticalAlign=middle;whiteSpace=wrap;rounded=0;" vertex="1" parent="WSUk9pYbIgMh2Awi9GUR-1">
          <mxGeometry x="581.5" y="120" width="60" height="30" as="geometry" />
        </mxCell>
        <mxCell id="WSUk9pYbIgMh2Awi9GUR-19" value="logout" style="text;html=1;align=center;verticalAlign=middle;whiteSpace=wrap;rounded=0;" vertex="1" parent="WSUk9pYbIgMh2Awi9GUR-1">
          <mxGeometry x="700" y="120" width="60" height="30" as="geometry" />
        </mxCell>
        <mxCell id="8beqjm--gFW3aVOQIsti-0" value="" style="rounded=0;whiteSpace=wrap;html=1;" vertex="1" parent="WSUk9pYbIgMh2Awi9GUR-1">
          <mxGeometry x="461.5" y="170" width="158.5" height="150" as="geometry" />
        </mxCell>
        <mxCell id="8beqjm--gFW3aVOQIsti-1" value="carrousel" style="text;html=1;align=center;verticalAlign=middle;whiteSpace=wrap;rounded=0;" vertex="1" parent="WSUk9pYbIgMh2Awi9GUR-1">
          <mxGeometry x="510.75" y="220" width="60" height="30" as="geometry" />
        </mxCell>
        <mxCell id="8beqjm--gFW3aVOQIsti-2" value="" style="rounded=0;whiteSpace=wrap;html=1;" vertex="1" parent="WSUk9pYbIgMh2Awi9GUR-1">
          <mxGeometry x="341.5" y="340" width="378.5" height="370" as="geometry" />
        </mxCell>
        <mxCell id="8beqjm--gFW3aVOQIsti-3" value="prÃ©sentation du site et du jdrt" style="text;html=1;align=center;verticalAlign=middle;whiteSpace=wrap;rounded=0;" vertex="1" parent="WSUk9pYbIgMh2Awi9GUR-1">
          <mxGeometry x="490" y="400" width="60" height="30" as="geometry" />
        </mxCell>
        <mxCell id="8beqjm--gFW3aVOQIsti-4" value="footer" style="rounded=0;whiteSpace=wrap;html=1;" vertex="1" parent="WSUk9pYbIgMh2Awi9GUR-1">
          <mxGeometry x="280" y="770" width="500" height="60" as="geometry" />
        </mxCell>
      </root>
    </mxGraphModel>
  </diagram>
  <diagram name="bible mobile" id="99B4f13xC3ahdtIbdLrF">
    <mxGraphModel dx="1434" dy="836" grid="1" gridSize="10" guides="1" tooltips="1" connect="1" arrows="1" fold="1" page="1" pageScale="1" pageWidth="1100" pageHeight="850" background="#ffffff" math="0" shadow="0">
      <root>
        <mxCell id="D0n5S8Oa23k0N1toB5gm-0" />
        <mxCell id="D0n5S8Oa23k0N1toB5gm-1" parent="D0n5S8Oa23k0N1toB5gm-0" />
        <mxCell id="D0n5S8Oa23k0N1toB5gm-2" value="" style="whiteSpace=wrap;html=1;rounded=0;shadow=0;labelBackgroundColor=none;strokeWidth=1;fillColor=none;fontFamily=Verdana;fontSize=12;align=center;comic=1;" vertex="1" parent="D0n5S8Oa23k0N1toB5gm-1">
          <mxGeometry x="280" y="110" width="500" height="50" as="geometry" />
        </mxCell>
        <mxCell id="D0n5S8Oa23k0N1toB5gm-3" value="" style="whiteSpace=wrap;html=1;rounded=0;shadow=0;labelBackgroundColor=none;strokeColor=#000000;strokeWidth=1;fillColor=none;fontFamily=Verdana;fontSize=12;fontColor=#000000;align=center;comic=1;" vertex="1" parent="D0n5S8Oa23k0N1toB5gm-1">
          <mxGeometry x="280" y="20" width="500" height="810" as="geometry" />
        </mxCell>
        <mxCell id="D0n5S8Oa23k0N1toB5gm-4" value="LOGO" style="whiteSpace=wrap;html=1;rounded=0;shadow=0;labelBackgroundColor=none;strokeWidth=1;fontFamily=Verdana;fontSize=28;align=center;comic=1;" vertex="1" parent="D0n5S8Oa23k0N1toB5gm-1">
          <mxGeometry x="300" y="40" width="190" height="50" as="geometry" />
        </mxCell>
        <mxCell id="D0n5S8Oa23k0N1toB5gm-5" value="nom du site" style="text;html=1;points=[];align=left;verticalAlign=top;spacingTop=-4;fontSize=14;fontFamily=Verdana" vertex="1" parent="D0n5S8Oa23k0N1toB5gm-1">
          <mxGeometry x="550" y="52.5" width="123" height="25" as="geometry" />
        </mxCell>
        <mxCell id="D0n5S8Oa23k0N1toB5gm-6" value="bible" style="rounded=0;whiteSpace=wrap;html=1;" vertex="1" parent="D0n5S8Oa23k0N1toB5gm-1">
          <mxGeometry x="650" y="37.5" width="120" height="40" as="geometry" />
        </mxCell>
        <mxCell id="D0n5S8Oa23k0N1toB5gm-7" value="Home" style="text;html=1;align=center;verticalAlign=middle;whiteSpace=wrap;rounded=0;" vertex="1" parent="D0n5S8Oa23k0N1toB5gm-1">
          <mxGeometry x="310" y="120" width="60" height="30" as="geometry" />
        </mxCell>
        <mxCell id="D0n5S8Oa23k0N1toB5gm-8" value="bibliothÃ¨que" style="text;html=1;align=center;verticalAlign=middle;whiteSpace=wrap;rounded=0;" vertex="1" parent="D0n5S8Oa23k0N1toB5gm-1">
          <mxGeometry x="390" y="120" width="60" height="30" as="geometry" />
        </mxCell>
        <mxCell id="D0n5S8Oa23k0N1toB5gm-9" value="sheet" style="text;html=1;align=center;verticalAlign=middle;whiteSpace=wrap;rounded=0;" vertex="1" parent="D0n5S8Oa23k0N1toB5gm-1">
          <mxGeometry x="470" y="120" width="60" height="30" as="geometry" />
        </mxCell>
        <mxCell id="D0n5S8Oa23k0N1toB5gm-10" value="profil" style="text;html=1;align=center;verticalAlign=middle;whiteSpace=wrap;rounded=0;" vertex="1" parent="D0n5S8Oa23k0N1toB5gm-1">
          <mxGeometry x="581.5" y="120" width="60" height="30" as="geometry" />
        </mxCell>
        <mxCell id="D0n5S8Oa23k0N1toB5gm-11" value="logout" style="text;html=1;align=center;verticalAlign=middle;whiteSpace=wrap;rounded=0;" vertex="1" parent="D0n5S8Oa23k0N1toB5gm-1">
          <mxGeometry x="700" y="120" width="60" height="30" as="geometry" />
        </mxCell>
        <mxCell id="D0n5S8Oa23k0N1toB5gm-12" value="" style="rounded=0;whiteSpace=wrap;html=1;" vertex="1" parent="D0n5S8Oa23k0N1toB5gm-1">
          <mxGeometry x="340" y="170" width="380" height="50" as="geometry" />
        </mxCell>
        <mxCell id="D0n5S8Oa23k0N1toB5gm-13" value="barre de recherche" style="text;html=1;align=center;verticalAlign=middle;whiteSpace=wrap;rounded=0;" vertex="1" parent="D0n5S8Oa23k0N1toB5gm-1">
          <mxGeometry x="500" y="180" width="60" height="30" as="geometry" />
        </mxCell>
        <mxCell id="D0n5S8Oa23k0N1toB5gm-14" value="" style="rounded=0;whiteSpace=wrap;html=1;" vertex="1" parent="D0n5S8Oa23k0N1toB5gm-1">
          <mxGeometry x="341.5" y="340" width="378.5" height="370" as="geometry" />
        </mxCell>
        <mxCell id="D0n5S8Oa23k0N1toB5gm-15" value="rÃ©sultat" style="text;html=1;align=center;verticalAlign=middle;whiteSpace=wrap;rounded=0;" vertex="1" parent="D0n5S8Oa23k0N1toB5gm-1">
          <mxGeometry x="490" y="400" width="60" height="30" as="geometry" />
        </mxCell>
        <mxCell id="D0n5S8Oa23k0N1toB5gm-16" value="footer" style="rounded=0;whiteSpace=wrap;html=1;" vertex="1" parent="D0n5S8Oa23k0N1toB5gm-1">
          <mxGeometry x="280" y="770" width="500" height="60" as="geometry" />
        </mxCell>
        <mxCell id="y3IBQvKZghGyufWfUA3r-1" value="filtre de recherche" style="rounded=0;whiteSpace=wrap;html=1;" vertex="1" parent="D0n5S8Oa23k0N1toB5gm-1">
          <mxGeometry x="340" y="230" width="380" height="50" as="geometry" />
        </mxCell>
      </root>
    </mxGraphModel>
  </diagram>
  <diagram name="sheet mobile" id="x56C1APqbv9p7B1LN5Ro">
    <mxGraphModel dx="1434" dy="836" grid="1" gridSize="10" guides="1" tooltips="1" connect="1" arrows="1" fold="1" page="1" pageScale="1" pageWidth="1100" pageHeight="850" background="#ffffff" math="0" shadow="0">
      <root>
        <mxCell id="VhKmpsS7Y0wrHLsOQBN1-0" />
        <mxCell id="VhKmpsS7Y0wrHLsOQBN1-1" parent="VhKmpsS7Y0wrHLsOQBN1-0" />
        <mxCell id="VhKmpsS7Y0wrHLsOQBN1-2" value="" style="whiteSpace=wrap;html=1;rounded=0;shadow=0;labelBackgroundColor=none;strokeWidth=1;fillColor=none;fontFamily=Verdana;fontSize=12;align=center;comic=1;" vertex="1" parent="VhKmpsS7Y0wrHLsOQBN1-1">
          <mxGeometry x="280" y="110" width="500" height="50" as="geometry" />
        </mxCell>
        <mxCell id="VhKmpsS7Y0wrHLsOQBN1-3" value="" style="whiteSpace=wrap;html=1;rounded=0;shadow=0;labelBackgroundColor=none;strokeColor=#000000;strokeWidth=1;fillColor=none;fontFamily=Verdana;fontSize=12;fontColor=#000000;align=center;comic=1;" vertex="1" parent="VhKmpsS7Y0wrHLsOQBN1-1">
          <mxGeometry x="280" y="20" width="500" height="810" as="geometry" />
        </mxCell>
        <mxCell id="VhKmpsS7Y0wrHLsOQBN1-4" value="LOGO" style="whiteSpace=wrap;html=1;rounded=0;shadow=0;labelBackgroundColor=none;strokeWidth=1;fontFamily=Verdana;fontSize=28;align=center;comic=1;" vertex="1" parent="VhKmpsS7Y0wrHLsOQBN1-1">
          <mxGeometry x="300" y="40" width="190" height="50" as="geometry" />
        </mxCell>
        <mxCell id="VhKmpsS7Y0wrHLsOQBN1-5" value="nom du site" style="text;html=1;points=[];align=left;verticalAlign=top;spacingTop=-4;fontSize=14;fontFamily=Verdana" vertex="1" parent="VhKmpsS7Y0wrHLsOQBN1-1">
          <mxGeometry x="550" y="52.5" width="123" height="25" as="geometry" />
        </mxCell>
        <mxCell id="VhKmpsS7Y0wrHLsOQBN1-6" value="sheet" style="rounded=0;whiteSpace=wrap;html=1;" vertex="1" parent="VhKmpsS7Y0wrHLsOQBN1-1">
          <mxGeometry x="650" y="37.5" width="120" height="40" as="geometry" />
        </mxCell>
        <mxCell id="VhKmpsS7Y0wrHLsOQBN1-7" value="Home" style="text;html=1;align=center;verticalAlign=middle;whiteSpace=wrap;rounded=0;" vertex="1" parent="VhKmpsS7Y0wrHLsOQBN1-1">
          <mxGeometry x="310" y="120" width="60" height="30" as="geometry" />
        </mxCell>
        <mxCell id="VhKmpsS7Y0wrHLsOQBN1-8" value="bibliothÃ¨que" style="text;html=1;align=center;verticalAlign=middle;whiteSpace=wrap;rounded=0;" vertex="1" parent="VhKmpsS7Y0wrHLsOQBN1-1">
          <mxGeometry x="390" y="120" width="60" height="30" as="geometry" />
        </mxCell>
        <mxCell id="VhKmpsS7Y0wrHLsOQBN1-9" value="sheet" style="text;html=1;align=center;verticalAlign=middle;whiteSpace=wrap;rounded=0;" vertex="1" parent="VhKmpsS7Y0wrHLsOQBN1-1">
          <mxGeometry x="470" y="120" width="60" height="30" as="geometry" />
        </mxCell>
        <mxCell id="VhKmpsS7Y0wrHLsOQBN1-10" value="profil" style="text;html=1;align=center;verticalAlign=middle;whiteSpace=wrap;rounded=0;" vertex="1" parent="VhKmpsS7Y0wrHLsOQBN1-1">
          <mxGeometry x="581.5" y="120" width="60" height="30" as="geometry" />
        </mxCell>
        <mxCell id="VhKmpsS7Y0wrHLsOQBN1-11" value="logout" style="text;html=1;align=center;verticalAlign=middle;whiteSpace=wrap;rounded=0;" vertex="1" parent="VhKmpsS7Y0wrHLsOQBN1-1">
          <mxGeometry x="700" y="120" width="60" height="30" as="geometry" />
        </mxCell>
        <mxCell id="VhKmpsS7Y0wrHLsOQBN1-14" value="zone de dessin" style="rounded=0;whiteSpace=wrap;html=1;" vertex="1" parent="VhKmpsS7Y0wrHLsOQBN1-1">
          <mxGeometry x="350" y="190" width="378.5" height="560" as="geometry" />
        </mxCell>
        <mxCell id="VhKmpsS7Y0wrHLsOQBN1-16" value="footer" style="rounded=0;whiteSpace=wrap;html=1;" vertex="1" parent="VhKmpsS7Y0wrHLsOQBN1-1">
          <mxGeometry x="280" y="770" width="500" height="60" as="geometry" />
        </mxCell>
        <mxCell id="5FSgjV2m7mH2tVS_0fe2-0" value="" style="rounded=0;whiteSpace=wrap;html=1;" vertex="1" parent="VhKmpsS7Y0wrHLsOQBN1-1">
          <mxGeometry x="290" y="190" width="50" height="510" as="geometry" />
        </mxCell>
        <mxCell id="5FSgjV2m7mH2tVS_0fe2-1" value="icone des forme" style="text;html=1;align=center;verticalAlign=middle;whiteSpace=wrap;rounded=0;" vertex="1" parent="VhKmpsS7Y0wrHLsOQBN1-1">
          <mxGeometry x="290" y="230" width="45" height="220" as="geometry" />
        </mxCell>
        <mxCell id="5FSgjV2m7mH2tVS_0fe2-2" value="panel properties" style="rounded=0;whiteSpace=wrap;html=1;" vertex="1" parent="VhKmpsS7Y0wrHLsOQBN1-1">
          <mxGeometry x="730" y="190" width="40" height="510" as="geometry" />
        </mxCell>
      </root>
    </mxGraphModel>
  </diagram>
</mxfile>
